<svg xmlns="http://www.w3.org/2000/svg" xmlns:xlink="http://www.w3.org/1999/xlink" width="500" zoomAndPan="magnify" viewBox="0 0 375 149.999998" height="200" preserveAspectRatio="xMidYMid meet" version="1.2"><defs><clipPath id="c40c44ee73"><path d="M 0 52.117188 L 48 52.117188 L 48 100.117188 L 0 100.117188 Z M 0 52.117188 "/></clipPath><clipPath id="40e751e344"><path d="M 24 52.117188 C 10.746094 52.117188 0 62.863281 0 76.117188 C 0 89.371094 10.746094 100.117188 24 100.117188 C 37.253906 100.117188 48 89.371094 48 76.117188 C 48 62.863281 37.253906 52.117188 24 52.117188 Z M 24 52.117188 "/></clipPath></defs><g id="eab4daf0fc"><g style="fill:#000000;fill-opacity:1;"><g transform="translate(73.579691, 109.98719)"><path style="stroke:none" d="M 8.515625 0 L 8.515625 -75.953125 L 36.03125 -75.953125 C 45.976562 -75.953125 53.359375 -74.242188 58.171875 -70.828125 C 62.992188 -67.421875 65.40625 -62.492188 65.40625 -56.046875 C 65.40625 -52.265625 64.441406 -48.984375 62.515625 -46.203125 C 60.585938 -43.421875 57.15625 -40.992188 52.21875 -38.921875 C 55.40625 -38.117188 57.976562 -37.035156 59.9375 -35.671875 C 61.894531 -34.304688 63.398438 -32.789062 64.453125 -31.125 C 65.503906 -29.457031 66.222656 -27.722656 66.609375 -25.921875 C 66.992188 -24.117188 67.1875 -22.34375 67.1875 -20.59375 C 67.1875 -13.59375 64.804688 -8.410156 60.046875 -5.046875 C 55.285156 -1.679688 47.703125 0 37.296875 0 Z M 23.796875 -11.875 L 37.609375 -11.875 C 42.234375 -11.875 45.726562 -12.800781 48.09375 -14.65625 C 50.457031 -16.507812 51.640625 -18.992188 51.640625 -22.109375 C 51.640625 -24.359375 51.0625 -26.242188 49.90625 -27.765625 C 48.75 -29.285156 47.179688 -30.429688 45.203125 -31.203125 C 43.222656 -31.972656 40.972656 -32.359375 38.453125 -32.359375 L 23.796875 -32.359375 Z M 23.796875 -44.546875 L 38.453125 -44.546875 C 40.023438 -44.546875 41.535156 -44.726562 42.984375 -45.09375 C 44.441406 -45.46875 45.738281 -46.039062 46.875 -46.8125 C 48.019531 -47.582031 48.925781 -48.566406 49.59375 -49.765625 C 50.257812 -50.972656 50.59375 -52.398438 50.59375 -54.046875 C 50.59375 -57.347656 49.359375 -59.847656 46.890625 -61.546875 C 44.421875 -63.242188 41.257812 -64.09375 37.40625 -64.09375 L 23.796875 -64.09375 Z M 23.796875 -44.546875 "/></g></g><g style="fill:#000000;fill-opacity:1;"><g transform="translate(140.343837, 109.98719)"><path style="stroke:none" d="M 22.015625 -54.3125 L 22.015625 0 L 7.359375 0 L 7.359375 -54.3125 Z M 22.171875 -75.90625 L 22.171875 -62.09375 L 7.25 -62.09375 L 7.25 -75.90625 Z M 22.171875 -75.90625 "/></g></g><g style="fill:#000000;fill-opacity:1;"><g transform="translate(164.559525, 109.98719)"><path style="stroke:none" d="M 23.90625 0.953125 C 19.90625 0.953125 16.734375 0.476562 14.390625 -0.46875 C 12.046875 -1.414062 10.3125 -2.664062 9.1875 -4.21875 C 8.070312 -5.78125 7.351562 -7.515625 7.03125 -9.421875 C 6.71875 -11.335938 6.5625 -13.273438 6.5625 -15.234375 L 6.5625 -78.0625 L 21.59375 -78.0625 L 21.59375 -17.125 C 21.59375 -15.125 22.019531 -13.503906 22.875 -12.265625 C 23.738281 -11.023438 25.359375 -10.265625 27.734375 -9.984375 L 30.3125 -9.828125 L 30.3125 -0.375 C 29.257812 -0.0195312 28.191406 0.285156 27.109375 0.546875 C 26.023438 0.816406 24.957031 0.953125 23.90625 0.953125 Z M 23.90625 0.953125 "/></g></g><g style="fill:#000000;fill-opacity:1;"><g transform="translate(193.555353, 109.98719)"><path style="stroke:none" d="M 23.90625 0.953125 C 19.90625 0.953125 16.734375 0.476562 14.390625 -0.46875 C 12.046875 -1.414062 10.3125 -2.664062 9.1875 -4.21875 C 8.070312 -5.78125 7.351562 -7.515625 7.03125 -9.421875 C 6.71875 -11.335938 6.5625 -13.273438 6.5625 -15.234375 L 6.5625 -78.0625 L 21.59375 -78.0625 L 21.59375 -17.125 C 21.59375 -15.125 22.019531 -13.503906 22.875 -12.265625 C 23.738281 -11.023438 25.359375 -10.265625 27.734375 -9.984375 L 30.3125 -9.828125 L 30.3125 -0.375 C 29.257812 -0.0195312 28.191406 0.285156 27.109375 0.546875 C 26.023438 0.816406 24.957031 0.953125 23.90625 0.953125 Z M 23.90625 0.953125 "/></g></g><g style="fill:#000000;fill-opacity:1;"><g transform="translate(222.551181, 109.98719)"><path style="stroke:none" d="M 29.890625 1.046875 C 24.566406 1.046875 19.9375 -0.0859375 16 -2.359375 C 12.0625 -4.640625 9.015625 -7.863281 6.859375 -12.03125 C 4.703125 -16.195312 3.625 -21.132812 3.625 -26.84375 C 3.625 -32.550781 4.703125 -37.539062 6.859375 -41.8125 C 9.015625 -46.082031 12.0625 -49.410156 16 -51.796875 C 19.9375 -54.179688 24.582031 -55.375 29.9375 -55.375 C 35.300781 -55.375 39.941406 -54.207031 43.859375 -51.875 C 47.785156 -49.539062 50.816406 -46.238281 52.953125 -41.96875 C 55.085938 -37.695312 56.15625 -32.65625 56.15625 -26.84375 C 56.15625 -21.382812 55.113281 -16.5625 53.03125 -12.375 C 50.945312 -8.1875 47.953125 -4.898438 44.046875 -2.515625 C 40.140625 -0.140625 35.421875 1.046875 29.890625 1.046875 Z M 29.9375 -10.34375 C 32.632812 -10.34375 34.804688 -11.128906 36.453125 -12.703125 C 38.097656 -14.285156 39.296875 -16.363281 40.046875 -18.9375 C 40.804688 -21.507812 41.1875 -24.320312 41.1875 -27.375 C 41.1875 -30.238281 40.84375 -32.945312 40.15625 -35.5 C 39.476562 -38.0625 38.316406 -40.128906 36.671875 -41.703125 C 35.023438 -43.285156 32.78125 -44.078125 29.9375 -44.078125 C 27.238281 -44.078125 25.054688 -43.332031 23.390625 -41.84375 C 21.734375 -40.351562 20.519531 -38.335938 19.75 -35.796875 C 18.976562 -33.253906 18.59375 -30.445312 18.59375 -27.375 C 18.59375 -24.53125 18.941406 -21.800781 19.640625 -19.1875 C 20.347656 -16.582031 21.523438 -14.457031 23.171875 -12.8125 C 24.816406 -11.164062 27.070312 -10.34375 29.9375 -10.34375 Z M 29.9375 -10.34375 "/></g></g><g style="fill:#000000;fill-opacity:1;"><g transform="translate(277.181136, 109.98719)"><path style="stroke:none" d="M 6.5625 0 L 6.5625 -54.3125 L 21.328125 -54.3125 L 21.328125 -41.453125 C 22.203125 -44.210938 23.4375 -46.632812 25.03125 -48.71875 C 26.625 -50.800781 28.554688 -52.429688 30.828125 -53.609375 C 33.109375 -54.785156 35.6875 -55.375 38.5625 -55.375 C 39.050781 -55.375 39.515625 -55.34375 39.953125 -55.28125 C 40.390625 -55.226562 40.710938 -55.148438 40.921875 -55.046875 L 40.921875 -40.453125 C 40.609375 -40.585938 40.234375 -40.671875 39.796875 -40.703125 C 39.359375 -40.742188 38.960938 -40.78125 38.609375 -40.8125 C 35.597656 -41.0625 33.023438 -40.972656 30.890625 -40.546875 C 28.753906 -40.128906 27.019531 -39.410156 25.6875 -38.390625 C 24.351562 -37.378906 23.390625 -36.140625 22.796875 -34.671875 C 22.203125 -33.203125 21.90625 -31.554688 21.90625 -29.734375 L 21.90625 0 Z M 6.5625 0 "/></g></g><g style="fill:#000000;fill-opacity:1;"><g transform="translate(314.739184, 109.98719)"><path style="stroke:none" d="M 22.328125 1.046875 C 18.859375 1.046875 15.738281 0.398438 12.96875 -0.890625 C 10.207031 -2.191406 8.019531 -4.078125 6.40625 -6.546875 C 4.800781 -9.015625 4 -12.015625 4 -15.546875 C 4 -21.503906 6.21875 -26.03125 10.65625 -29.125 C 15.101562 -32.226562 22.128906 -33.832031 31.734375 -33.9375 L 38.5 -34.046875 L 38.5 -37.296875 C 38.5 -39.785156 37.769531 -41.703125 36.3125 -43.046875 C 34.863281 -44.398438 32.617188 -45.054688 29.578125 -45.015625 C 27.335938 -44.984375 25.207031 -44.457031 23.1875 -43.4375 C 21.175781 -42.425781 19.800781 -40.660156 19.0625 -38.140625 L 6.296875 -38.140625 C 6.515625 -42.054688 7.65625 -45.285156 9.71875 -47.828125 C 11.78125 -50.367188 14.585938 -52.257812 18.140625 -53.5 C 21.703125 -54.75 25.742188 -55.375 30.265625 -55.375 C 35.828125 -55.375 40.289062 -54.679688 43.65625 -53.296875 C 47.019531 -51.910156 49.453125 -49.929688 50.953125 -47.359375 C 52.460938 -44.785156 53.21875 -41.726562 53.21875 -38.1875 L 53.21875 0 L 40.390625 0 L 39.140625 -9.34375 C 37.285156 -5.425781 34.960938 -2.710938 32.171875 -1.203125 C 29.390625 0.296875 26.109375 1.046875 22.328125 1.046875 Z M 27.46875 -9.03125 C 28.875 -9.03125 30.234375 -9.285156 31.546875 -9.796875 C 32.859375 -10.304688 34.03125 -10.988281 35.0625 -11.84375 C 36.09375 -12.695312 36.921875 -13.664062 37.546875 -14.75 C 38.179688 -15.84375 38.5 -16.96875 38.5 -18.125 L 38.5 -26.15625 L 32.984375 -26.0625 C 30.429688 -26.019531 28.050781 -25.707031 25.84375 -25.125 C 23.632812 -24.550781 21.851562 -23.613281 20.5 -22.3125 C 19.15625 -21.019531 18.484375 -19.273438 18.484375 -17.078125 C 18.484375 -14.554688 19.359375 -12.582031 21.109375 -11.15625 C 22.867188 -9.738281 24.988281 -9.03125 27.46875 -9.03125 Z M 27.46875 -9.03125 "/></g></g><g clip-rule="nonzero" clip-path="url(#c40c44ee73)"><g clip-rule="nonzero" clip-path="url(#40e751e344)"><path style=" stroke:none;fill-rule:nonzero;fill:#f7ad73;fill-opacity:1;" d="M 0 52.117188 L 48 52.117188 L 48 100.117188 L 0 100.117188 Z M 0 52.117188 "/></g></g></g></svg>